<svg width="143" height="20" viewBox="0 0 143 20" xmlns="http://www.w3.org/2000/svg"><title>logo copy</title><g fill="#1D8CF9" fill-rule="evenodd"><text font-family="VarelaRound-Regular, Varela Round" font-size="24" transform="translate(-3 -3)"><tspan x="24" y="22">POPCORN</tspan></text><path d="M4.053 11.52a3.427 3.427 0 0 1-1.571-.741 2.881 2.881 0 0 1-.13-.115l.5 7.242c.004.056.012.113.023.167.008.037.018.072.027.107.148.474.577.81 1.077.81h8.297c.06 0 .119-.006.177-.013l.045-.008.049-.012c.003-.002.01-.002.013-.004.265-.072.49-.24.645-.465l.03-.047a1.128 1.128 0 0 0 .131-.313 1.18 1.18 0 0 0 .031-.166l.006-.056.5-7.242a3.381 3.381 0 0 1-1.701.857l-.22 6.689h-1.557l.216-6.426c-.191.208-.407.39-.645.548-.335.22-.702.378-1.086.468v5.412H7.353v-5.414a3.41 3.41 0 0 1-1.73-1.016l.215 6.428H4.281l-.228-6.69z"/><path d="M2.093 8.65a2.637 2.637 0 0 0 1.933 2.067 2.65 2.65 0 0 0 1.715-.146 2.638 2.638 0 0 0 2.388 1.54 2.627 2.627 0 0 0 2.389-1.538 2.613 2.613 0 0 0 1.715.146 2.637 2.637 0 0 0 1.933-2.067 2.624 2.624 0 0 0-.29-5.078 2.623 2.623 0 0 0-3.38-2.071A2.622 2.622 0 0 0 5.765 1.5a2.623 2.623 0 0 0-3.38 2.071 2.624 2.624 0 0 0-.291 5.077z"/></g></svg>