<?xml version="1.0" encoding="UTF-8" standalone="no"?>
<svg width="16px" height="21px" viewBox="0 0 16 21" version="1.1" xmlns="http://www.w3.org/2000/svg" xmlns:xlink="http://www.w3.org/1999/xlink">
    <!-- Generator: Sketch 3.8.3 (29802) - http://www.bohemiancoding.com/sketch -->
    <title>Shape</title>
    <desc>Created with Sketch.</desc>
    <defs></defs>
    <g id="Page-1" stroke="none" stroke-width="1" fill="none" fill-rule="evenodd">
        <g id="Desktop" transform="translate(-189.000000, -420.000000)" fill="#1D8CF9">
            <g id="arrow-left" transform="translate(197.500000, 430.500000) rotate(-180.000000) translate(-197.500000, -430.500000) translate(173.000000, 406.000000)">
                <path d="M34.5041798,27.4857473 L26.1634607,17.5640214 C25.8300225,17.1880071 25.440764,17 24.9959551,17 C24.5425618,17 24.1576629,17.1879537 23.8410337,17.5640214 L15.4875506,27.4857473 C15.1624719,27.8716904 15,28.3340747 15,28.8725801 C15,29.4213345 15.1626517,29.8784342 15.4875506,30.2440925 L16.4498427,31.3871352 C16.7578876,31.7730783 17.1428764,31.9664235 17.604764,31.9664235 C18.0666966,31.9664235 18.4515955,31.7731317 18.7596854,31.3871352 L24.9959551,23.9953915 L31.2322697,31.3869751 C31.5400449,31.7728114 31.9249888,31.9662633 32.3873258,31.9662633 C32.8404494,31.9662633 33.2298876,31.7728114 33.5547416,31.3869751 L34.5169438,30.2439858 C34.8334831,29.8680249 34.9918652,29.4108185 34.9918652,28.8724733 C34.9918652,28.3338612 34.8294382,27.8715302 34.5041798,27.4857473 L34.5041798,27.4857473 Z" id="Shape" transform="translate(24.995933, 24.483212) rotate(-272.000000) translate(-24.995933, -24.483212) "></path>
            </g>
        </g>
    </g>
</svg>