<?xml version="1.0" encoding="UTF-8" standalone="no"?>
<svg width="12px" height="15px" viewBox="0 0 12 15" version="1.1" xmlns="http://www.w3.org/2000/svg" xmlns:xlink="http://www.w3.org/1999/xlink">
    <!-- Generator: Sketch 3.8.3 (29802) - http://www.bohemiancoding.com/sketch -->
    <title>Shape</title>
    <desc>Created with Sketch.</desc>
    <defs></defs>
    <g id="Page-1" stroke="none" stroke-width="1" fill="none" fill-rule="evenodd">
        <g id="--" transform="translate(-270.000000, -191.000000)" fill="#D7D7D7">
            <path d="M282.987768,200.609691 L277.056843,193.317436 C276.819742,193.041073 276.542947,192.902892 276.226652,192.902892 C275.904253,192.902892 275.630559,193.041034 275.40541,193.317436 L269.465409,200.609691 C269.234252,200.893351 269.118722,201.233194 269.118722,201.628984 C269.118722,202.032306 269.23438,202.368265 269.465409,202.637016 L270.149677,203.477128 C270.368722,203.760788 270.64248,203.902892 270.970919,203.902892 C271.29939,203.902892 271.573085,203.760827 271.792161,203.477128 L276.226652,198.044355 L280.661175,203.47701 C280.880028,203.760591 281.153755,203.902774 281.482514,203.902774 C281.804721,203.902774 282.081643,203.760591 282.31264,203.47701 L282.996844,202.636937 C283.221929,202.360614 283.334551,202.024577 283.334551,201.628905 C283.334551,201.233037 283.219053,200.893233 282.987768,200.609691 L282.987768,200.609691 Z" id="Shape" transform="translate(276.226636, 198.402892) rotate(-90.000000) translate(-276.226636, -198.402892) "></path>
        </g>
    </g>
</svg>