<?xml version="1.0" encoding="UTF-8" standalone="no"?>
<svg width="12px" height="12px" viewBox="0 0 12 12" version="1.1" xmlns="http://www.w3.org/2000/svg" xmlns:xlink="http://www.w3.org/1999/xlink">
    <!-- Generator: Sketch 3.8.3 (29802) - http://www.bohemiancoding.com/sketch -->
    <title>Shape</title>
    <desc>Created with Sketch.</desc>
    <defs></defs>
    <g id="Page-1" stroke="none" stroke-width="1" fill="none" fill-rule="evenodd">
        <g id="Desktop" transform="translate(-449.000000, -225.000000)" fill="#1D8CF9">
            <g id="search-copy-2" transform="translate(151.000000, 215.000000)">
                <path d="M309.706319,20.2881524 L307.09938,17.6812618 C307.085525,17.6674071 307.069274,17.6577232 307.054796,17.6448273 C307.567755,16.8667103 307.867142,15.9352808 307.867142,14.9336188 C307.867142,12.2088434 305.658298,10 302.933571,10 C300.208843,10 298,12.2088434 298,14.9335709 C298,17.6582505 300.208795,19.8671418 302.933523,19.8671418 C303.935233,19.8671418 304.866614,19.5677554 305.644731,19.0547956 C305.657627,19.0692256 305.667263,19.0854773 305.681118,19.099332 L308.288104,21.7063185 C308.679728,22.0978938 309.314647,22.0978938 309.706319,21.7063185 C310.097894,21.3146953 310.097894,20.6797756 309.706319,20.2881524 L309.706319,20.2881524 Z M302.933571,18.1568283 C301.153361,18.1568283 299.710266,16.7137333 299.710266,14.9335709 C299.710266,13.1533606 301.153409,11.7102656 302.933571,11.7102656 C304.713685,11.7102656 306.156828,13.1534085 306.156828,14.9335709 C306.156828,16.7137333 304.713685,18.1568283 302.933571,18.1568283 L302.933571,18.1568283 Z" id="Shape"></path>
            </g>
        </g>
    </g>
</svg>