<?xml version="1.0" encoding="UTF-8" standalone="no"?>
<svg width="11px" height="15px" viewBox="0 0 11 15" version="1.1" xmlns="http://www.w3.org/2000/svg" xmlns:xlink="http://www.w3.org/1999/xlink">
    <!-- Generator: Sketch 3.8.3 (29802) - http://www.bohemiancoding.com/sketch -->
    <title>Shape</title>
    <desc>Created with Sketch.</desc>
    <defs></defs>
    <g id="Page-1" stroke="none" stroke-width="1" fill="none" fill-rule="evenodd">
        <g id="--" transform="translate(-255.000000, -191.000000)" fill="#1D8CF9">
            <path d="M267.261131,200.314714 L261.330207,193.022458 C261.093105,192.746096 260.816311,192.607915 260.500016,192.607915 C260.177617,192.607915 259.903923,192.746057 259.678774,193.022458 L253.738773,200.314714 C253.507616,200.598374 253.392085,200.938216 253.392085,201.334006 C253.392085,201.737329 253.507744,202.073287 253.738773,202.342038 L254.42304,203.18215 C254.642085,203.46581 254.915843,203.607915 255.244283,203.607915 C255.572754,203.607915 255.846448,203.465849 256.065525,203.18215 L260.500016,197.749377 L264.934539,203.182033 C265.153392,203.465614 265.427118,203.607797 265.755877,203.607797 C266.078085,203.607797 266.355007,203.465614 266.586004,203.182033 L267.270207,202.34196 C267.495292,202.065637 267.607915,201.7296 267.607915,201.333928 C267.607915,200.938059 267.492416,200.598256 267.261131,200.314714 L267.261131,200.314714 Z" id="Shape" transform="translate(260.500000, 198.107915) rotate(-90.000000) translate(-260.500000, -198.107915) "></path>
        </g>
    </g>
</svg>