<?xml version="1.0" encoding="UTF-8" standalone="no"?>
<svg width="8px" height="4px" viewBox="0 0 8 4" version="1.1" xmlns="http://www.w3.org/2000/svg" xmlns:xlink="http://www.w3.org/1999/xlink">
    <!-- Generator: Sketch 3.8.3 (29802) - http://www.bohemiancoding.com/sketch -->
    <title>Shape Copy 6</title>
    <desc>Created with Sketch.</desc>
    <defs></defs>
    <g id="Page-1" stroke="none" stroke-width="1" fill="none" fill-rule="evenodd">
        <g id="Desktop" transform="translate(-253.000000, -144.000000)" fill="#1D8CF9">
            <path d="M260.804846,146.802472 L257.467201,144.150743 C257.333772,144.050248 257.178005,144 257.000009,144 C256.818578,144 256.664556,144.050233 256.537852,144.150743 L253.1951,146.802472 C253.065015,146.905621 253,147.029201 253,147.173124 C253,147.319787 253.065087,147.441954 253.1951,147.539681 L253.580173,147.845177 C253.703441,147.948326 253.857499,148 254.04233,148 C254.227178,148 254.3812,147.94834 254.504486,147.845177 L257.000009,145.869623 L259.49555,147.845134 C259.61871,147.948254 259.77275,147.999957 259.95776,147.999957 C260.139084,147.999957 260.294922,147.948254 260.424917,147.845134 L260.809954,147.539653 C260.936621,147.439172 261,147.316976 261,147.173096 C261,147.029144 260.935003,146.905579 260.804846,146.802472 L260.804846,146.802472 Z" id="Shape-Copy-6" transform="translate(257.000000, 146.000000) rotate(-180.000000) translate(-257.000000, -146.000000) "></path>
        </g>
    </g>
</svg>