<?xml version="1.0" encoding="UTF-8" standalone="no"?>
<svg width="20px" height="20px" viewBox="0 0 20 20" version="1.1" xmlns="http://www.w3.org/2000/svg" xmlns:xlink="http://www.w3.org/1999/xlink">
    <!-- Generator: Sketch 3.8.3 (29802) - http://www.bohemiancoding.com/sketch -->
    <title>Shape</title>
    <desc>Created with Sketch.</desc>
    <defs></defs>
    <g id="Welcome" stroke="none" stroke-width="1" fill="none" fill-rule="evenodd">
        <g id="Main-Desktop" transform="translate(-1025.000000, -1731.000000)" fill="#D7D7D7">
            <g id="recommend" transform="translate(-216.000000, 1468.000000)">
                <g id="poster-click-" transform="translate(0.000000, 200.000000)">
                    <path d="M1253.37697,73.000047 L1260.50771,65.8693035 C1261.1641,65.21291 1261.1641,64.1486886 1260.50771,63.492389 C1259.85131,62.8359955 1258.78719,62.8359955 1258.13079,63.492389 L1250.99996,70.6232264 L1243.86914,63.4922951 C1243.21274,62.8359016 1242.14862,62.8359016 1241.49222,63.4922951 C1240.83593,64.1486886 1240.83593,65.21291 1241.49222,65.8692096 L1248.62305,72.999953 L1241.49222,80.1307904 C1240.83593,80.7871839 1240.83593,81.8514053 1241.49222,82.5077049 C1242.14862,83.1640984 1243.21274,83.1640984 1243.86914,82.5077049 L1250.99996,75.3768675 L1258.13079,82.5077049 C1258.78709,83.1640984 1259.85131,83.1640984 1260.50771,82.5077049 C1261.1641,81.8513114 1261.1641,80.7871839 1260.50771,80.1307904 L1253.37697,73.000047 L1253.37697,73.000047 Z" id="Shape"></path>
                </g>
            </g>
        </g>
    </g>
</svg>