<?xml version="1.0" encoding="UTF-8" standalone="no"?>
<svg width="10px" height="10px" viewBox="0 0 10 10" version="1.1" xmlns="http://www.w3.org/2000/svg" xmlns:xlink="http://www.w3.org/1999/xlink">
    <!-- Generator: Sketch 3.8.3 (29802) - http://www.bohemiancoding.com/sketch -->
    <title>heart</title>
    <desc>Created with Sketch.</desc>
    <defs></defs>
    <g id="Page-1" stroke="none" stroke-width="1" fill="none" fill-rule="evenodd">
        <g id="Desktop" transform="translate(-604.000000, -268.000000)" fill="#F16778">
            <g id="like-button" transform="translate(601.000000, 264.000000)">
                <path d="M10.2037915,4.00467508 C9.45580054,4.00467508 8.75108181,4.33660589 8.22151247,4.9373539 L8.00309087,5.18513324 L7.78054811,4.93267882 C7.25097878,4.33193081 6.54626005,4 5.79826911,4 C5.05233876,4 4.34968061,4.32959327 3.82011127,4.93034128 C3.29054193,5.53108929 3,6.32819074 3,7.17671809 C3,8.02524544 3.29260251,8.82234689 3.82217185,9.4230949 L7.74757882,13.8761103 L7.75582114,13.8854605 C7.82382032,13.9625993 7.91448589,14 8.00309087,14 C8.09375644,14 8.18442201,13.9602618 8.25242118,13.883123 L12.1778281,9.43010753 C12.7073975,8.82935951 13,8.03225806 13,7.18373072 C13,6.33520337 12.7094581,5.53576438 12.1798887,4.9373539 C11.65238,4.33426835 10.9497218,4.00467508 10.2037915,4.00467508 L10.2037915,4.00467508 Z" id="heart"></path>
            </g>
        </g>
    </g>
</svg>