<?xml version="1.0" encoding="UTF-8" standalone="no"?>
<svg width="12px" height="11px" viewBox="0 0 12 11" version="1.1" xmlns="http://www.w3.org/2000/svg" xmlns:xlink="http://www.w3.org/1999/xlink">
    <!-- Generator: Sketch 3.8.3 (29802) - http://www.bohemiancoding.com/sketch -->
    <title>menu copy</title>
    <desc>Created with Sketch.</desc>
    <defs></defs>
    <g id="Page-1" stroke="none" stroke-width="1" fill="none" fill-rule="evenodd">
        <g id="Desktop" transform="translate(-214.000000, -141.000000)" fill="#484848">
            <g id="menu-copy" transform="translate(214.000000, 141.000000)">
                <g id="Group">
                    <path d="M12,0.541666667 C12,0.216666667 11.8,0 11.5,0 L0.5,0 C0.2,0 0,0.216666667 0,0.541666667 L0,1.625 C0,1.95 0.2,2.16666667 0.5,2.16666667 L11.5,2.16666667 C11.8,2.16666667 12,1.95 12,1.625 L12,0.541666667 L12,0.541666667 Z" id="Shape"></path>
                    <path d="M12,4.875 C12,4.55 11.8,4.33333333 11.5,4.33333333 L0.5,4.33333333 C0.2,4.33333333 0,4.55 0,4.875 L0,5.95833333 C0,6.28333333 0.2,6.5 0.5,6.5 L11.5,6.5 C11.8,6.5 12,6.28333333 12,5.95833333 L12,4.875 L12,4.875 Z" id="Shape"></path>
                    <path d="M12,9.20833333 C12,8.88333333 11.8,8.66666667 11.5,8.66666667 L0.5,8.66666667 C0.2,8.66666667 0,8.88333333 0,9.20833333 L0,10.2916667 C0,10.6166667 0.2,10.8333333 0.5,10.8333333 L11.5,10.8333333 C11.8,10.8333333 12,10.6166667 12,10.2916667 L12,9.20833333 L12,9.20833333 Z" id="Shape"></path>
                </g>
            </g>
        </g>
    </g>
</svg>