<?xml version="1.0" encoding="UTF-8" standalone="no"?>
<svg width="20px" height="20px" viewBox="0 0 20 20" version="1.1" xmlns="http://www.w3.org/2000/svg" xmlns:xlink="http://www.w3.org/1999/xlink">
    <!-- Generator: Sketch 3.8.3 (29802) - http://www.bohemiancoding.com/sketch -->
    <title>Shape Copy 3</title>
    <desc>Created with Sketch.</desc>
    <defs></defs>
    <g id="Page-1" stroke="none" stroke-width="1" fill="none" fill-rule="evenodd">
        <g id="Desktop" transform="translate(-251.000000, -274.000000)" fill="#F8E81C">
            <g id="stars" transform="translate(177.000000, 274.000000)">
                <path d="M93.5659672,9.06366258 C93.959635,8.66321114 94.0986002,8.0754922 93.9287984,7.52915604 C93.7585961,6.98281988 93.3152693,6.59281863 92.7706221,6.51005309 L87.9280677,5.77561343 C87.7218226,5.74426284 87.5436109,5.60924633 87.4515014,5.4140367 L85.2865288,0.834343519 C85.0434399,0.319775948 84.5500536,0 84.0002002,0 C83.4507473,0 82.957361,0.319775948 82.7142722,0.834343519 L80.5488991,5.41445471 C80.4567896,5.60966434 80.2781774,5.74468085 80.0719323,5.77603143 L75.2293779,6.51047109 C74.6851311,6.59281863 74.2414039,6.98323789 74.0712016,7.52957405 C73.9013998,8.07591021 74.040365,8.66362914 74.4340328,9.06408059 L77.9377963,12.6288509 C78.0871738,12.7810057 78.1556552,13.0000418 78.1204133,13.2140618 L77.2938311,18.2477114 C77.220544,18.6907996 77.3318763,19.1217657 77.6066027,19.461606 C78.03351,19.9912218 78.7787956,20.1525728 79.3747038,19.8256908 L83.70545,17.4488985 C83.8864651,17.3498307 84.1143359,17.3506667 84.2949505,17.4488985 L88.6260972,19.8256908 C88.8367475,19.9414789 89.0614145,20 89.29329,20 C89.716593,20 90.1178699,19.8035363 90.3937978,19.461606 C90.6689247,19.1217657 90.7798565,18.6899636 90.7065694,18.2477114 L89.8795867,13.2140618 C89.8443448,12.9996238 89.9128262,12.7810057 90.0622037,12.6288509 L93.5659672,9.06366258 L93.5659672,9.06366258 Z" id="Shape-Copy-3"></path>
            </g>
        </g>
    </g>
</svg>