<svg width="28px" height="28px" viewBox="166 171 28 28" version="1.1" xmlns="http://www.w3.org/2000/svg" xmlns:xlink="http://www.w3.org/1999/xlink">
    <!-- Generator: Sketch 3.8.3 (29802) - http://www.bohemiancoding.com/sketch -->
    <desc>Created with Sketch.</desc>
    <defs></defs>
    <g id="arrow-left" stroke="none" stroke-width="1" fill="none" fill-rule="evenodd" transform="translate(180.500000, 184.500000) rotate(-180.000000) translate(-180.500000, -184.500000) translate(168.000000, 172.000000)">
        <ellipse id="Oval-13" stroke="#D7D7D7" stroke-width="2" cx="12.5" cy="12.5" rx="12.5" ry="12.5"></ellipse>
        <path d="M17.6041734,14.0233405 L13.3487044,8.96123538 C13.1785829,8.76939139 12.9799817,8.67346939 12.7530383,8.67346939 C12.5217152,8.67346939 12.3253382,8.76936415 12.1637927,8.96123538 L7.90181151,14.0233405 C7.73595506,14.2202502 7.65306122,14.4561606 7.65306122,14.7309082 C7.65306122,15.010885 7.73604678,15.2440991 7.90181151,15.4306595 L8.39277689,16.0138445 C8.54994267,16.2107542 8.74636551,16.3093997 8.98202247,16.3093997 C9.21770236,16.3093997 9.41407934,16.2107815 9.57126806,16.0138445 L12.7530383,12.2425467 L15.9348315,16.0137628 C16.0918597,16.2106181 16.2882596,16.309318 16.5241458,16.309318 C16.7553313,16.309318 16.9540243,16.2106181 17.1197661,16.0137628 L17.6106856,15.430605 C17.7721853,15.2387882 17.8529924,15.0055196 17.8529924,14.7308537 C17.8529924,14.4560516 17.7701215,14.2201685 17.6041734,14.0233405 L17.6041734,14.0233405 Z" id="Shape" fill="#D7D7D7" transform="translate(12.753027, 12.491435) rotate(-272.000000) translate(-12.753027, -12.491435) "></path>
    </g>
</svg>
