<?xml version="1.0" encoding="UTF-8" standalone="no"?>
<svg width="20px" height="20px" viewBox="0 0 22 22" version="1.1" xmlns="http://www.w3.org/2000/svg" xmlns:xlink="http://www.w3.org/1999/xlink">
    <!-- Generator: Sketch 3.8.3 (29802) - http://www.bohemiancoding.com/sketch -->
    <title>Shape Copy 4</title>
    <desc>Created with Sketch.</desc>
    <defs></defs>
    <g id="Page-1" stroke="none" stroke-width="1" fill="none" fill-rule="evenodd">
        <g id="Desktop" transform="translate(-275.000000, -273.000000)" stroke="#F8E81C">
            <g id="stars" transform="translate(177.000000, 274.000000)">
                <path d="M118.565967,9.06366258 C118.959635,8.66321114 119.0986,8.0754922 118.928798,7.52915604 C118.758596,6.98281988 118.315269,6.59281863 117.770622,6.51005309 L112.928068,5.77561343 C112.721823,5.74426284 112.543611,5.60924633 112.451501,5.4140367 L110.286529,0.834343519 C110.04344,0.319775948 109.550054,0 109.0002,0 C108.450747,0 107.957361,0.319775948 107.714272,0.834343519 L105.548899,5.41445471 C105.45679,5.60966434 105.278177,5.74468085 105.071932,5.77603143 L100.229378,6.51047109 C99.6851311,6.59281863 99.2414039,6.98323789 99.0712016,7.52957405 C98.9013998,8.07591021 99.040365,8.66362914 99.4340328,9.06408059 L102.937796,12.6288509 C103.087174,12.7810057 103.155655,13.0000418 103.120413,13.2140618 L102.293831,18.2477114 C102.220544,18.6907996 102.331876,19.1217657 102.606603,19.461606 C103.03351,19.9912218 103.778796,20.1525728 104.374704,19.8256908 L108.70545,17.4488985 C108.886465,17.3498307 109.114336,17.3506667 109.29495,17.4488985 L113.626097,19.8256908 C113.836748,19.9414789 114.061414,20 114.29329,20 C114.716593,20 115.11787,19.8035363 115.393798,19.461606 C115.668925,19.1217657 115.779857,18.6899636 115.706569,18.2477114 L114.879587,13.2140618 C114.844345,12.9996238 114.912826,12.7810057 115.062204,12.6288509 L118.565967,9.06366258 L118.565967,9.06366258 Z" id="Shape-Copy-4"></path>
            </g>
        </g>
    </g>
</svg>
