<?xml version="1.0" encoding="UTF-8" standalone="no"?>
<svg width="30px" height="30px" viewBox="0 0 30 30" version="1.1" xmlns="http://www.w3.org/2000/svg" xmlns:xlink="http://www.w3.org/1999/xlink">
    <!-- Generator: Sketch 3.8.3 (29802) - http://www.bohemiancoding.com/sketch -->
    <title>github</title>
    <desc>Created with Sketch.</desc>
    <defs></defs>
    <g id="Page-1" stroke="none" stroke-width="1" fill="none" fill-rule="evenodd">
        <g id="Desktop" transform="translate(-250.000000, -431.000000)" fill="#D7D7D7">
            <path d="M277.958907,438.636923 C276.618952,436.287552 274.80139,434.427552 272.50574,433.056503 C270.209749,431.685385 267.703212,431 264.984351,431 C262.265831,431 259.758474,431.685594 257.462961,433.056503 C255.167107,434.427483 253.349613,436.287552 252.009658,438.636923 C250.669909,440.986224 250,443.551678 250,446.333217 C250,449.674476 250.95262,452.679021 252.858337,455.347622 C254.76385,458.016434 257.22549,459.863147 260.243052,460.887972 C260.594305,460.954685 260.854328,460.907762 261.023394,460.748392 C261.192528,460.588811 261.276993,460.388951 261.276993,460.14965 C261.276993,460.10972 261.273645,459.75049 261.267153,459.071538 C261.260456,458.392587 261.257312,457.80028 261.257312,457.294895 L260.808542,457.374336 C260.522415,457.427972 260.161458,457.450699 259.725672,457.444266 C259.290091,457.438042 258.837904,457.391329 258.369727,457.304476 C257.901344,457.218392 257.465695,457.018741 257.062437,456.705944 C256.659385,456.393147 256.373257,455.983706 256.204123,455.478252 L256.009021,455.018811 C255.878975,454.712937 255.674237,454.373147 255.394533,454.000699 C255.114829,453.627902 254.831982,453.375175 254.545854,453.242098 L254.409248,453.142028 C254.318223,453.075524 254.233759,452.995315 254.155649,452.902238 C254.077608,452.809161 254.01918,452.716014 253.980159,452.622727 C253.941071,452.529371 253.973462,452.452797 254.077677,452.392727 C254.181891,452.332657 254.370228,452.303497 254.643508,452.303497 L255.033576,452.363147 C255.293736,452.416503 255.615535,452.575874 255.999385,452.842238 C256.38303,453.108392 256.698405,453.454406 256.945581,453.88014 C257.244897,454.426014 257.605513,454.841958 258.028451,455.128182 C258.451048,455.414406 258.87713,455.557273 259.306287,455.557273 C259.735444,455.557273 260.106105,455.523986 260.418405,455.457762 C260.730364,455.391189 261.023052,455.291119 261.296333,455.158112 C261.413394,454.265944 261.732118,453.580559 262.252232,453.101469 C261.510911,453.021748 260.844419,452.901678 260.252415,452.742028 C259.660752,452.582168 259.049339,452.322727 258.418588,451.963007 C257.787494,451.603776 257.263964,451.157692 256.847859,450.625524 C256.431686,450.093077 256.090137,449.394056 255.82369,448.529091 C255.557107,447.663776 255.423781,446.665594 255.423781,445.534266 C255.423781,443.923427 255.937677,442.552657 256.965262,441.421189 C256.483895,440.21014 256.529339,438.852517 257.101731,437.348462 C257.478952,437.228531 258.03836,437.318531 258.779681,437.617902 C259.521139,437.917413 260.064009,438.173986 260.408838,438.386713 C260.753667,438.599371 261.029954,438.77958 261.238109,438.925734 C262.448018,438.57979 263.696606,438.406783 264.984214,438.406783 C266.271822,438.406783 267.520683,438.57979 268.730661,438.925734 L269.47205,438.446783 C269.979043,438.127203 270.577745,437.834336 271.26672,437.568112 C271.956105,437.302028 272.483257,437.228741 272.847631,437.348671 C273.432733,438.852797 273.484875,440.21035 273.003371,441.421399 C274.030888,442.552867 274.544989,443.923986 274.544989,445.534476 C274.544989,446.665804 274.411185,447.667133 274.145011,448.539091 C273.878497,449.411189 273.534009,450.10951 273.111412,450.635524 C272.688337,451.161469 272.161458,451.604056 271.530706,451.963217 C270.899818,452.322657 270.2882,452.582098 269.696538,452.741958 C269.104601,452.901818 268.438109,453.021958 267.696788,453.101818 C268.372916,453.700559 268.711048,454.645664 268.711048,455.936713 L268.711048,460.149091 C268.711048,460.388392 268.792369,460.588182 268.955148,460.747832 C269.117722,460.907203 269.374465,460.954126 269.725718,460.887343 C272.74369,459.862657 275.20533,458.015874 277.110774,455.347063 C279.016014,452.678462 279.968975,449.673916 279.968975,446.332657 C279.968292,443.551469 279.298041,440.986224 277.958907,438.636923 L277.958907,438.636923 Z" id="github"></path>
        </g>
    </g>
</svg>