<svg width="121" height="22" viewBox="0 0 121 22" xmlns="http://www.w3.org/2000/svg"><title>stars0.5</title><g fill="none" fill-rule="evenodd"><path d="M20.566 10.064c.394-.4.533-.989.363-1.535A1.444 1.444 0 0 0 19.77 7.51l-4.843-.734a.635.635 0 0 1-.476-.362l-2.165-4.58A1.421 1.421 0 0 0 11 1c-.55 0-1.043.32-1.286.834L7.55 6.414a.636.636 0 0 1-.477.362L2.23 7.51a1.444 1.444 0 0 0-1.158 1.02c-.17.546-.03 1.134.363 1.534l3.504 3.565a.68.68 0 0 1 .182.585l-.826 5.034c-.073.443.038.874.313 1.214.427.53 1.172.69 1.768.364l4.33-2.377a.624.624 0 0 1 .59 0l4.331 2.377c.21.115.435.174.667.174a1.41 1.41 0 0 0 1.1-.538 1.51 1.51 0 0 0 .314-1.214l-.827-5.034a.68.68 0 0 1 .182-.585l3.504-3.565z" stroke="#F8E81C"/><path d="M11 1c-.55 0-1.043.32-1.286.834L7.55 6.414a.636.636 0 0 1-.477.362L2.23 7.51a1.444 1.444 0 0 0-1.158 1.02c-.17.546-.03 1.134.363 1.534l3.504 3.565a.68.68 0 0 1 .182.585l-.826 5.034c-.073.443.038.874.313 1.214.427.53 1.172.69 1.768.364l4.33-2.377a.614.614 0 0 1 .295-.074V1z" fill="#F8E81C"/><path d="M44.566 10.064c.394-.4.533-.989.363-1.535A1.444 1.444 0 0 0 43.77 7.51l-4.843-.734a.635.635 0 0 1-.476-.362l-2.165-4.58A1.421 1.421 0 0 0 35 1c-.55 0-1.043.32-1.286.834l-2.165 4.58a.636.636 0 0 1-.477.362l-4.843.734a1.444 1.444 0 0 0-1.158 1.02c-.17.546-.03 1.134.363 1.534l3.504 3.565a.68.68 0 0 1 .182.585l-.826 5.034c-.073.443.038.874.313 1.214.427.53 1.172.69 1.768.364l4.33-2.377a.624.624 0 0 1 .59 0l4.331 2.377c.21.115.435.174.667.174a1.41 1.41 0 0 0 1.1-.538 1.51 1.51 0 0 0 .314-1.214l-.827-5.034a.68.68 0 0 1 .182-.585l3.504-3.565zm25 0c.394-.4.533-.989.363-1.535A1.444 1.444 0 0 0 68.77 7.51l-4.843-.734a.635.635 0 0 1-.476-.362l-2.165-4.58A1.421 1.421 0 0 0 60 1c-.55 0-1.043.32-1.286.834l-2.165 4.58a.636.636 0 0 1-.477.362l-4.843.734a1.444 1.444 0 0 0-1.158 1.02c-.17.546-.03 1.134.363 1.534l3.504 3.565a.68.68 0 0 1 .182.585l-.826 5.034c-.073.443.038.874.313 1.214.427.53 1.172.69 1.768.364l4.33-2.377a.624.624 0 0 1 .59 0l4.331 2.377c.21.115.435.174.667.174a1.41 1.41 0 0 0 1.1-.538 1.51 1.51 0 0 0 .314-1.214l-.827-5.034a.68.68 0 0 1 .182-.585l3.504-3.565zm25 0c.394-.4.533-.989.363-1.535A1.444 1.444 0 0 0 93.77 7.51l-4.843-.734a.635.635 0 0 1-.476-.362l-2.165-4.58A1.421 1.421 0 0 0 85 1c-.55 0-1.043.32-1.286.834l-2.165 4.58a.636.636 0 0 1-.477.362l-4.843.734a1.444 1.444 0 0 0-1.158 1.02c-.17.546-.03 1.134.363 1.534l3.504 3.565a.68.68 0 0 1 .182.585l-.826 5.034c-.073.443.038.874.313 1.214.427.53 1.172.69 1.768.364l4.33-2.377a.624.624 0 0 1 .59 0l4.331 2.377c.21.115.435.174.667.174a1.41 1.41 0 0 0 1.1-.538 1.51 1.51 0 0 0 .314-1.214l-.827-5.034a.68.68 0 0 1 .182-.585l3.504-3.565zm25 0c.394-.4.533-.989.363-1.535a1.444 1.444 0 0 0-1.158-1.019l-4.843-.734a.635.635 0 0 1-.476-.362l-2.165-4.58A1.421 1.421 0 0 0 110 1c-.55 0-1.043.32-1.286.834l-2.165 4.58a.636.636 0 0 1-.477.362l-4.843.734a1.444 1.444 0 0 0-1.158 1.02c-.17.546-.03 1.134.363 1.534l3.504 3.565a.68.68 0 0 1 .182.585l-.826 5.034c-.073.443.038.874.313 1.214.427.53 1.172.69 1.768.364l4.33-2.377a.624.624 0 0 1 .59 0l4.331 2.377c.21.115.435.174.667.174a1.41 1.41 0 0 0 1.1-.538 1.51 1.51 0 0 0 .314-1.214l-.827-5.034a.68.68 0 0 1 .182-.585l3.504-3.565z" stroke="#F8E81C"/></g></svg>