<?xml version="1.0" encoding="UTF-8" standalone="no"?>
<svg width="143px" height="20px" viewBox="0 0 143 20" version="1.1" xmlns="http://www.w3.org/2000/svg" xmlns:xlink="http://www.w3.org/1999/xlink">
    <!-- Generator: Sketch 3.8.3 (29802) - http://www.bohemiancoding.com/sketch -->
    <title>logo</title>
    <desc>Created with Sketch.</desc>
    <defs></defs>
    <g id="Welcome" stroke="none" stroke-width="1" fill="none" fill-rule="evenodd">
        <g id="Main-Desktop" transform="translate(-100.000000, -39.000000)">
            <g id="header" transform="translate(97.000000, 21.000000)">
                <g id="logo" transform="translate(0.000000, 15.000000)">
                    <text id="POPCORN" font-family="VarelaRound-Regular, Varela Round" font-size="24" font-weight="normal" fill="#FFFFFF">
                        <tspan x="24" y="22">POPCORN</tspan>
                    </text>
                    <g id="popcorn-logo" transform="translate(0.000000, 3.000000)" fill="#1D8CF9">
                        <path d="M7.05297131,11.5207162 C6.74733607,11.4642613 6.4494877,11.3649785 6.17110656,11.228708 C5.92581967,11.1080113 5.69221311,10.9581137 5.48196721,10.7789959 C5.43719262,10.7420277 5.39436475,10.7030932 5.35153689,10.6641588 L5.85184426,17.9059621 C5.8557377,17.9623975 5.86354406,18.0188719 5.87520492,18.0733801 C5.8829918,18.1103678 5.89272541,18.1454088 5.90245902,18.1804498 C6.05040984,18.6535031 6.47868852,18.9902859 6.9789959,18.9902859 L7.30409836,18.9902859 L8.86147541,18.9902859 L10.3487705,18.9902859 L11.9061475,18.9902859 L13.3934426,18.9902859 L14.9508197,18.9902859 L15.2759221,18.9902859 C15.3362705,18.9902859 15.3946721,18.9844457 15.4530738,18.9766783 C15.4686475,18.9747121 15.4842408,18.9708186 15.4978484,18.9688914 C15.5134416,18.964998 15.5309426,18.9611045 15.5465164,18.9572111 C15.5504098,18.9552449 15.55625,18.9552449 15.5601434,18.9533176 C15.824917,18.8812889 16.0507172,18.7138709 16.2045277,18.4880512 C16.2142613,18.4724775 16.2259416,18.4569037 16.2356752,18.4413494 C16.2570891,18.4062889 16.2746096,18.371248 16.2921301,18.3342797 C16.3077039,18.3011855 16.3213309,18.2680912 16.3330113,18.2330502 C16.3446916,18.1980092 16.3563719,18.1629488 16.3661055,18.1279273 C16.3797326,18.0734191 16.3914129,18.0189109 16.3972531,17.9624559 C16.3992193,17.9429887 16.4011465,17.9254682 16.4030932,17.906001 L16.9034006,10.6641977 C16.8605727,10.7031322 16.8177643,10.7420666 16.7729703,10.7790543 C16.5607971,10.9581527 16.3291178,11.1080502 16.0838504,11.2287469 C15.8054693,11.3650174 15.5076014,11.4643197 15.2019857,11.5207551 L14.9819672,18.2096311 L13.4245902,18.2096311 L13.6406957,11.7835041 C13.4498975,11.9918033 13.2338115,12.1747951 12.9963115,12.3324795 C12.6614949,12.5524785 12.2935451,12.7101434 11.910041,12.7996926 L11.910041,18.2115779 L10.3526639,18.2115779 L10.3526639,12.7977459 C9.96721311,12.7081967 9.60122951,12.5505123 9.26639344,12.3305328 C9.02889344,12.1747951 8.81280738,11.9898566 8.62202869,11.7815574 L8.83811475,18.2096311 L7.2807377,18.2096311 L7.05297131,11.5207162 L7.05297131,11.5207162 Z" id="Shape"></path>
                        <path d="M5.09262295,8.64930225 C5.12571721,8.83424078 5.18022541,9.01331967 5.25030738,9.18268443 L5.25030738,9.18268443 C5.43329918,9.62069672 5.73114754,9.99836066 6.10686475,10.2786885 C6.37743955,10.4811475 6.68891496,10.6310645 7.02571721,10.7167008 C7.23206967,10.7692623 7.44813627,10.7965359 7.67200922,10.7965359 C7.99127152,10.7965359 8.29885348,10.7381342 8.58112807,10.634958 C8.63563627,10.6154908 8.68819775,10.5940574 8.74075922,10.5706967 C9.04834119,11.246209 9.6343043,11.7679303 10.3506977,11.9918033 C10.5959846,12.0677254 10.858792,12.1105727 11.1293863,12.1105727 C11.3999611,12.1105727 11.6627684,12.0696721 11.9080748,11.9937695 C12.6263955,11.7718432 13.2104119,11.2481752 13.5180133,10.5726629 C13.5705553,10.5960236 13.6231168,10.6174375 13.677625,10.6369047 C13.9618658,10.7420277 14.267501,10.7984826 14.5867439,10.7984826 C14.8106168,10.7984826 15.0267223,10.771248 15.2330553,10.718667 C15.5698381,10.6330113 15.8813135,10.4830943 16.1519078,10.2806547 C16.527625,10.0003268 16.8254734,9.62266291 17.0084652,9.18465061 C17.0785471,9.01528586 17.1330553,8.8361875 17.1661496,8.65124898 C18.2271127,8.31641291 18.9980338,7.32358504 18.9980338,6.14971209 C18.9980338,4.87266291 18.0850215,3.80780635 16.8761076,3.5741998 C16.6717018,2.33024488 15.5912715,1.38024488 14.288915,1.38024488 C14.0124805,1.38024488 13.7477264,1.42307275 13.4965994,1.50288832 C13.076127,0.617110656 12.1747951,0.00778688525 11.1313525,0.00778688525 C10.0879098,0.00778688525 9.18659734,0.617110656 8.76413934,1.50092213 C8.51495902,1.42110656 8.2482582,1.37827869 7.97182377,1.37827869 C6.66946721,1.37827869 5.58903689,2.32827869 5.38463115,3.57223361 C4.17571721,3.80584016 3.26270492,4.87069672 3.26270492,6.1477459 C3.2607582,7.32163832 4.03165984,8.31446619 5.09262295,8.64930225 L5.09262295,8.64930225 Z" id="Shape"></path>
                    </g>
                </g>
            </g>
        </g>
    </g>
</svg>