<?xml version="1.0" encoding="UTF-8" standalone="no"?>
<svg width="97px" height="14px" viewBox="0 0 97 14" version="1.1" xmlns="http://www.w3.org/2000/svg" xmlns:xlink="http://www.w3.org/1999/xlink">
    <!-- Generator: Sketch 3.8.3 (29802) - http://www.bohemiancoding.com/sketch -->
    <title>logo  </title>
    <desc>Created with Sketch.</desc>
    <defs></defs>
    <g id="Welcome" stroke="none" stroke-width="1" fill="none" fill-rule="evenodd">
        <g id="Main-Mobile" transform="translate(-38.000000, -18.000000)" fill="#1D8CF9">
            <g id="header-" transform="translate(0.000000, 11.000000)">
                <g id="logo--" transform="translate(36.000000, 5.000000)">
                    <text id="POPCORN" font-family="VarelaRound-Regular, Varela Round" font-size="16" font-weight="normal">
                        <tspan x="18" y="15">POPCORN</tspan>
                    </text>
                    <g id="popcorn-logo" transform="translate(0.000000, 2.000000)">
                        <path d="M4.82571721,7.88259529 C4.61659836,7.84396824 4.41280738,7.77603791 4.22233607,7.6828002 C4.0545082,7.60021824 3.89467213,7.49765676 3.75081967,7.37510246 C3.72018443,7.3498084 3.69088115,7.32316906 3.66157787,7.29652971 L4.00389344,12.2514477 C4.00655738,12.2900615 4.01189857,12.3287018 4.01987705,12.3659969 C4.02520492,12.3913043 4.03186475,12.4152797 4.03852459,12.4392551 C4.1397541,12.7629232 4.43278689,12.9933535 4.77510246,12.9933535 L4.99754098,12.9933535 L6.06311475,12.9933535 L7.0807377,12.9933535 L8.14631148,12.9933535 L9.16393443,12.9933535 L10.2295082,12.9933535 L10.4519467,12.9933535 C10.4932377,12.9933535 10.5331967,12.9893576 10.5731557,12.984043 C10.5838115,12.9826977 10.5944805,12.9800338 10.603791,12.9787152 C10.61446,12.9760512 10.6264344,12.9733873 10.6370902,12.9707234 C10.6397541,12.9693781 10.64375,12.9693781 10.6464139,12.9680594 C10.8275748,12.9187766 10.9820697,12.8042275 11.0873084,12.6497193 C11.0939682,12.6390635 11.10196,12.6284078 11.1086199,12.6177654 C11.1232715,12.5937766 11.1352592,12.5698012 11.1472469,12.5445072 C11.1579027,12.5218637 11.1672264,12.4992203 11.1752182,12.4752449 C11.18321,12.4512695 11.1912018,12.4272807 11.1978617,12.4033186 C11.2071855,12.3660236 11.2151773,12.3287285 11.2191732,12.2901014 C11.2205184,12.2767818 11.2218371,12.2647941 11.2231691,12.2514744 L11.5654846,7.29655635 C11.5361814,7.3231957 11.5068914,7.34983504 11.4762428,7.37514242 C11.3310717,7.4976834 11.1725543,7.60024488 11.0047398,7.68282684 C10.8142684,7.77606455 10.6104641,7.8440082 10.4013586,7.88262193 L10.2508197,12.4592213 L9.1852459,12.4592213 L9.33310758,8.06239754 C9.20256148,8.20491803 9.05471311,8.33012295 8.89221311,8.4380123 C8.66312807,8.58853791 8.41137295,8.69641393 8.14897541,8.75768443 L8.14897541,12.4605533 L7.08340164,12.4605533 L7.08340164,8.75635246 C6.81967213,8.69508197 6.5692623,8.58719262 6.34016393,8.43668033 C6.17766393,8.33012295 6.02981557,8.20358607 5.89928279,8.06106557 L6.04713115,12.4592213 L4.98155738,12.4592213 L4.82571721,7.88259529 L4.82571721,7.88259529 Z" id="Shape"></path>
                        <path d="M3.48442623,5.91794365 C3.50706967,6.04448053 3.54436475,6.1670082 3.59231557,6.28288934 L3.59231557,6.28288934 C3.71752049,6.58258197 3.92131148,6.84098361 4.17838115,7.03278689 C4.36351127,7.17131148 4.57662602,7.27388627 4.80706967,7.33247951 C4.9482582,7.36844262 5.09609324,7.38710348 5.24926947,7.38710348 C5.46771209,7.38710348 5.67816291,7.34714447 5.87129816,7.2765502 C5.90859324,7.26323053 5.94455635,7.24856557 5.98051947,7.23258197 C6.19097029,7.69477459 6.59189242,8.0517418 7.08205635,8.20491803 C7.24988422,8.25686475 7.4296998,8.28618135 7.61484324,8.28618135 C7.79997336,8.28618135 7.97978893,8.25819672 8.14763012,8.20626332 C8.6391127,8.05441906 9.03870287,7.69611988 9.24916701,7.23392725 C9.2851168,7.24991086 9.32107992,7.2645625 9.358375,7.27788217 C9.55285553,7.3498084 9.76197439,7.38843545 9.98040369,7.38843545 C10.1335799,7.38843545 10.2814416,7.36980123 10.4226168,7.3338248 C10.6530471,7.27521824 10.8661619,7.17264344 11.0513053,7.03413217 C11.308375,6.84232889 11.512166,6.58392725 11.6373709,6.28423463 C11.6853217,6.16835348 11.7226168,6.0458125 11.7452602,5.91927561 C12.4711824,5.69017725 12.9986547,5.01087398 12.9986547,4.20769775 C12.9986547,3.33392725 12.3739621,2.60534119 11.5468105,2.44550512 C11.4069539,1.59437807 10.6677121,0.944378074 9.77662602,0.944378074 C9.58748668,0.944378074 9.40633914,0.973681352 9.23451537,1.02829201 C8.94682377,0.422233607 8.33012295,0.00532786885 7.61618852,0.00532786885 C6.9022541,0.00532786885 6.2855666,0.422233607 5.99651639,1.02694672 C5.82602459,0.972336066 5.64354508,0.943032787 5.45440574,0.943032787 C4.56331967,0.943032787 3.82407787,1.59303279 3.68422131,2.44415984 C2.85706967,2.6039959 2.23237705,3.33258197 2.23237705,4.20635246 C2.23104508,5.00954201 2.7585041,5.68884529 3.48442623,5.91794365 L3.48442623,5.91794365 Z" id="Shape"></path>
                    </g>
                </g>
            </g>
        </g>
    </g>
</svg>