<?xml version="1.0" encoding="UTF-8"?>
<svg width="120px" height="22px" viewBox="0 0 120 22" version="1.1" xmlns="http://www.w3.org/2000/svg" xmlns:xlink="http://www.w3.org/1999/xlink">
    <!-- Generator: Sketch 3.8.3 (29802) - http://www.bohemiancoding.com/sketch -->
    <title>stars3.0</title>
    <desc>Created with Sketch.</desc>
    <defs></defs>
    <g id="Page-1" stroke="none" stroke-width="1" fill="none" fill-rule="evenodd">
        <g id="Desktop" transform="translate(-444.000000, -471.000000)">
            <g id="stars3.0" transform="translate(444.000000, 472.000000)">
                <path d="M19.5659672,9.06366258 C19.959635,8.66321114 20.0986002,8.0754922 19.9287984,7.52915604 C19.7585961,6.98281988 19.3152693,6.59281863 18.7706221,6.51005309 L13.9280677,5.77561343 C13.7218226,5.74426284 13.5436109,5.60924633 13.4515014,5.4140367 L11.2865288,0.834343519 C11.0434399,0.319775948 10.5500536,0 10.0002002,0 C9.45074732,0 8.95736103,0.319775948 8.71427217,0.834343519 L6.54889905,5.41445471 C6.4567896,5.60966434 6.27817735,5.74468085 6.07193227,5.77603143 L1.22937786,6.51047109 C0.685131133,6.59281863 0.241403852,6.98323789 0.0712016004,7.52957405 C-0.0986001752,8.07591021 0.0403649572,8.66362914 0.434032753,9.06408059 L3.93779628,12.6288509 C4.08717378,12.7810057 4.15565516,13.0000418 4.12041328,13.2140618 L3.29383105,18.2477114 C3.22054397,18.6907996 3.33187626,19.1217657 3.60660272,19.461606 C4.03351001,19.9912218 4.77879564,20.1525728 5.37470376,19.8256908 L9.70544999,17.4488985 C9.88646509,17.3498307 10.1143359,17.3506667 10.2949505,17.4488985 L14.6260972,19.8256908 C14.8367475,19.9414789 15.0614145,20 15.29329,20 C15.716593,20 16.1178699,19.8035363 16.3937978,19.461606 C16.6689247,19.1217657 16.7798565,18.6899636 16.7065694,18.2477114 L15.8795867,13.2140618 C15.8443448,12.9996238 15.9128262,12.7810057 16.0622037,12.6288509 L19.5659672,9.06366258 L19.5659672,9.06366258 Z" id="Shape" fill="#F8E81C"></path>
                <path d="M43.5659672,9.06366258 C43.959635,8.66321114 44.0986002,8.0754922 43.9287984,7.52915604 C43.7585961,6.98281988 43.3152693,6.59281863 42.7706221,6.51005309 L37.9280677,5.77561343 C37.7218226,5.74426284 37.5436109,5.60924633 37.4515014,5.4140367 L35.2865288,0.834343519 C35.0434399,0.319775948 34.5500536,0 34.0002002,0 C33.4507473,0 32.957361,0.319775948 32.7142722,0.834343519 L30.5488991,5.41445471 C30.4567896,5.60966434 30.2781774,5.74468085 30.0719323,5.77603143 L25.2293779,6.51047109 C24.6851311,6.59281863 24.2414039,6.98323789 24.0712016,7.52957405 C23.9013998,8.07591021 24.040365,8.66362914 24.4340328,9.06408059 L27.9377963,12.6288509 C28.0871738,12.7810057 28.1556552,13.0000418 28.1204133,13.2140618 L27.2938311,18.2477114 C27.220544,18.6907996 27.3318763,19.1217657 27.6066027,19.461606 C28.03351,19.9912218 28.7787956,20.1525728 29.3747038,19.8256908 L33.70545,17.4488985 C33.8864651,17.3498307 34.1143359,17.3506667 34.2949505,17.4488985 L38.6260972,19.8256908 C38.8367475,19.9414789 39.0614145,20 39.29329,20 C39.716593,20 40.1178699,19.8035363 40.3937978,19.461606 C40.6689247,19.1217657 40.7798565,18.6899636 40.7065694,18.2477114 L39.8795867,13.2140618 C39.8443448,12.9996238 39.9128262,12.7810057 40.0622037,12.6288509 L43.5659672,9.06366258 L43.5659672,9.06366258 Z" id="Shape-Copy" fill="#F8E81C"></path>
                <path d="M68.5659672,9.06366258 C68.959635,8.66321114 69.0986002,8.0754922 68.9287984,7.52915604 C68.7585961,6.98281988 68.3152693,6.59281863 67.7706221,6.51005309 L62.9280677,5.77561343 C62.7218226,5.74426284 62.5436109,5.60924633 62.4515014,5.4140367 L60.2865288,0.834343519 C60.0434399,0.319775948 59.5500536,0 59.0002002,0 C58.4507473,0 57.957361,0.319775948 57.7142722,0.834343519 L55.5488991,5.41445471 C55.4567896,5.60966434 55.2781774,5.74468085 55.0719323,5.77603143 L50.2293779,6.51047109 C49.6851311,6.59281863 49.2414039,6.98323789 49.0712016,7.52957405 C48.9013998,8.07591021 49.040365,8.66362914 49.4340328,9.06408059 L52.9377963,12.6288509 C53.0871738,12.7810057 53.1556552,13.0000418 53.1204133,13.2140618 L52.2938311,18.2477114 C52.220544,18.6907996 52.3318763,19.1217657 52.6066027,19.461606 C53.03351,19.9912218 53.7787956,20.1525728 54.3747038,19.8256908 L58.70545,17.4488985 C58.8864651,17.3498307 59.1143359,17.3506667 59.2949505,17.4488985 L63.6260972,19.8256908 C63.8367475,19.9414789 64.0614145,20 64.29329,20 C64.716593,20 65.1178699,19.8035363 65.3937978,19.461606 C65.6689247,19.1217657 65.7798565,18.6899636 65.7065694,18.2477114 L64.8795867,13.2140618 C64.8443448,12.9996238 64.9128262,12.7810057 65.0622037,12.6288509 L68.5659672,9.06366258 L68.5659672,9.06366258 Z" id="Shape-Copy-2" fill="#F8E81C"></path>
                <path d="M93.5659672,9.06366258 C93.959635,8.66321114 94.0986002,8.0754922 93.9287984,7.52915604 C93.7585961,6.98281988 93.3152693,6.59281863 92.7706221,6.51005309 L87.9280677,5.77561343 C87.7218226,5.74426284 87.5436109,5.60924633 87.4515014,5.4140367 L85.2865288,0.834343519 C85.0434399,0.319775948 84.5500536,0 84.0002002,0 C83.4507473,0 82.957361,0.319775948 82.7142722,0.834343519 L80.5488991,5.41445471 C80.4567896,5.60966434 80.2781774,5.74468085 80.0719323,5.77603143 L75.2293779,6.51047109 C74.6851311,6.59281863 74.2414039,6.98323789 74.0712016,7.52957405 C73.9013998,8.07591021 74.040365,8.66362914 74.4340328,9.06408059 L77.9377963,12.6288509 C78.0871738,12.7810057 78.1556552,13.0000418 78.1204133,13.2140618 L77.2938311,18.2477114 C77.220544,18.6907996 77.3318763,19.1217657 77.6066027,19.461606 C78.03351,19.9912218 78.7787956,20.1525728 79.3747038,19.8256908 L83.70545,17.4488985 C83.8864651,17.3498307 84.1143359,17.3506667 84.2949505,17.4488985 L88.6260972,19.8256908 C88.8367475,19.9414789 89.0614145,20 89.29329,20 C89.716593,20 90.1178699,19.8035363 90.3937978,19.461606 C90.6689247,19.1217657 90.7798565,18.6899636 90.7065694,18.2477114 L89.8795867,13.2140618 C89.8443448,12.9996238 89.9128262,12.7810057 90.0622037,12.6288509 L93.5659672,9.06366258 L93.5659672,9.06366258 Z" id="Shape-Copy-3" stroke="#F8E81C"></path>
                <path d="M118.565967,9.06366258 C118.959635,8.66321114 119.0986,8.0754922 118.928798,7.52915604 C118.758596,6.98281988 118.315269,6.59281863 117.770622,6.51005309 L112.928068,5.77561343 C112.721823,5.74426284 112.543611,5.60924633 112.451501,5.4140367 L110.286529,0.834343519 C110.04344,0.319775948 109.550054,0 109.0002,0 C108.450747,0 107.957361,0.319775948 107.714272,0.834343519 L105.548899,5.41445471 C105.45679,5.60966434 105.278177,5.74468085 105.071932,5.77603143 L100.229378,6.51047109 C99.6851311,6.59281863 99.2414039,6.98323789 99.0712016,7.52957405 C98.9013998,8.07591021 99.040365,8.66362914 99.4340328,9.06408059 L102.937796,12.6288509 C103.087174,12.7810057 103.155655,13.0000418 103.120413,13.2140618 L102.293831,18.2477114 C102.220544,18.6907996 102.331876,19.1217657 102.606603,19.461606 C103.03351,19.9912218 103.778796,20.1525728 104.374704,19.8256908 L108.70545,17.4488985 C108.886465,17.3498307 109.114336,17.3506667 109.29495,17.4488985 L113.626097,19.8256908 C113.836748,19.9414789 114.061414,20 114.29329,20 C114.716593,20 115.11787,19.8035363 115.393798,19.461606 C115.668925,19.1217657 115.779857,18.6899636 115.706569,18.2477114 L114.879587,13.2140618 C114.844345,12.9996238 114.912826,12.7810057 115.062204,12.6288509 L118.565967,9.06366258 L118.565967,9.06366258 Z" id="Shape-Copy-4" stroke="#F8E81C"></path>
            </g>
        </g>
    </g>
</svg>