<svg width="97" height="14" viewBox="0 0 97 14" xmlns="http://www.w3.org/2000/svg"><title>logo</title><g fill="#1D8CF9" fill-rule="evenodd"><text font-family="VarelaRound-Regular, Varela Round" font-size="16" transform="translate(-2 -2)"><tspan x="18" y="15">POPCORN</tspan></text><path d="M2.826 7.883a2.344 2.344 0 0 1-1.164-.586l.342 4.954a.82.82 0 0 0 .035.188.777.777 0 0 0 .736.554h5.677a.913.913 0 0 0 .121-.009l.03-.005.034-.008c.003-.002.007-.002.01-.003a.784.784 0 0 0 .44-.318l.022-.032a.772.772 0 0 0 .089-.215.808.808 0 0 0 .021-.113l.004-.039.342-4.954c-.029.026-.058.053-.089.078a2.314 2.314 0 0 1-1.075.508l-.15 4.576H7.185l.148-4.397a2.31 2.31 0 0 1-1.184.695v3.704H5.083V8.756A2.299 2.299 0 0 1 3.9 8.061l.148 4.398H2.982l-.156-4.576z"/><path d="M1.484 5.918a1.805 1.805 0 0 0 1.323 1.415 1.787 1.787 0 0 0 1.064-.056 1.8 1.8 0 0 0 .11-.044 1.805 1.805 0 0 0 1.634 1.053 1.797 1.797 0 0 0 1.634-1.052 1.788 1.788 0 0 0 1.173.1 1.805 1.805 0 0 0 1.323-1.415 1.795 1.795 0 0 0-.198-3.473 1.795 1.795 0 0 0-2.312-1.418 1.794 1.794 0 0 0-3.238-.001 1.795 1.795 0 0 0-2.312 1.417 1.796 1.796 0 0 0-.2 3.474z"/></g></svg>